The Accidental Spy(2001) Tamil Dubbed 350MB DVDRip XviD-=MTR=-
 
http://img41.imageshack.us/img41/1863/sivaz.jpg 
http://img836.imageshack.us/img836/4062/theaccidentalspy2001.jpg

Check out MY latest Uploads:
 
http://thepiratebay.org/user/HDvideos/0/7

Stay updated with us....

Seed after downloading....

EnjoY with HDvideos..

Torrent From Mastitorrents

Team Mastitorrents

Say thanks if u like my posts

Give ur valuable feedbacks

Quality Uploads from HDvideos

General

Complete name                    : The Accidental Spy(2001) Tamil Dubbed 350MB DVDRip XviD-=MTR=-
Format                           : MPEG-4
Format profile                   : Base Media / Version 2
Codec ID                         : mp42
File size                        : 348 MiB
Duration                         : 1h 23mn
Overall bit rate                 : 583 Kbps
Encoded date                     : UTC 2011-05-23 08:41:45
Tagged date                      : UTC 2011-05-23 09:40:01
Writing application              : HandBrake 0.9.4 2009112300

Video

ID                               : 1
Format                           : AVC
Format/Info                      : Advanced Video Codec
Format profile                   : Main@L3.1
Format settings, CABAC           : Yes
Format settings, ReFrames        : 16 frames
Codec ID                         : avc1
Codec ID/Info                    : Advanced Video Coding
Duration                         : 1h 23mn
Bit rate mode                    : Variable
Bit rate                         : 422 Kbps
Width                            : 608 pixels
Height                           : 256 pixels
Display aspect ratio             : 2.25:1
Original display aspect ratio    : 2.25:1
Frame rate mode                  : Variable
Frame rate                       : 25.000 fps
Minimum frame rate               : 12.500 fps
Maximum frame rate               : 25.000 fps
Color space                      : YUV
Chroma subsampling               : 4:2:0
Bit depth                        : 8 bits
Scan type                        : Progressive
Bits/(Pixel*Frame)               : 0.108
Stream size                      : 252 MiB (72%)
Writing library                  : x264 core 79
Encoded date                     : UTC 2011-05-23 08:41:45
Tagged date                      : UTC 2011-05-23 09:40:01
Color primaries                  : BT.601-6 525, BT.1358 525, BT.1700 NTSC, SMPTE 170M
Transfer characteristics         : BT.709-5, BT.1361
Matrix coefficients              : BT.601-6 525, BT.1358 525, BT.1700 NTSC, SMPTE 170M

Audio

ID                               : 2
Format                           : AAC
Format/Info                      : Advanced Audio Codec
Format profile                   : LC
Codec ID                         : 40
Duration                         : 1h 23mn
Bit rate mode                    : Variable
Bit rate                         : 157 Kbps
Maximum bit rate                 : 256 Kbps
Channel(s)                       : 2 channels
Channel positions                : Front: L R
Sampling rate                    : 48.0 KHz
Stream size                      : 93.8 MiB (27%)
Encoded date                     : UTC 2011-05-23 08:41:45
Tagged date                      : UTC 2011-05-23 09:40:01
